Genre:Animation | Adventure | Comedy | Family | Fantasy
Language.: English
IMDB:http://www.imdb.com/title/tt0892791/
Source:1080p.BluRay.x264-REFiNED

General
Complete name :Shrek.Forever.After.2010.BRRip.720p.H264.Feel-Free
Format : MPEG-4
Format profile : Base Media / Version 2
Codec ID : mp42
File size : 1.70 GiB
Duration : 1h 33mn
Overall bit rate : 2 607 Kbps
Video #1
Codec ID : avc1
Codec ID/Info : Advanced Video Coding
Duration : 1h 33mn
Bit rate mode : Variable
Bit rate : 2 044 Kbps
Width : 1 280 pixels
Height : 544 pixels
Display aspect ratio : 2.35:1
Frame rate mode : Constant
Frame rate : 23.976 fps
Resolution : 24 bits
Colorimetry : 4:2:0
Scan type : Progressive
Bits/(Pixel*Frame) : 0.122
Stream size : 1.33 GiB (78%)
Audio #2
ID : 2
Format : AAC
Format/Info : Advanced Audio Codec
Format version : Version 4
Format profile : LC
Format settings, SBR : No
Codec ID : 40
Duration : 1h 33mn
Bit rate mode : Constant
Bit rate : 559 Kbps
Nominal bit rate : 576 Kbps
Channel(s) : 6 channels
Channel positions : Front: L C R, Rear: L R, LFE
Sampling rate : 48.0 KHz
Resolution : 16 bits
Stream size : 373 MiB (21%)

Plot:
Rumpelstiltskin tricks a mid-life crisis burdened Shrek into allowing himself to be erased from existence and cast in a dark alternate timeline where Rumpel rules supreme







================================== 
http://thepiratebay.org/user/hiest
==================================
